<?xml version="1.0" ?><!DOCTYPE svg  PUBLIC '-//W3C//DTD SVG 1.1//EN'  'http://www.w3.org/Graphics/SVG/1.1/DTD/svg11.dtd'><svg enable-background="new 0 0 128 128" height="128px" version="1.1" viewBox="0 0 128 128" width="128px" xml:space="preserve" xmlns="http://www.w3.org/2000/svg" xmlns:xlink="http://www.w3.org/1999/xlink"><g id="Layer_1"><path d="   M116,64c0,17.72-9.6,33.19-23.87,41.5C85.04,109.64,76.8,112,68,112c-8.73,0-16.92-2.33-23.97-6.4C29.67,97.31,20,81.78,20,64   c0-17.66,9.54-33.1,23.75-41.43C50.86,18.39,59.15,16,68,16c8.85,0,17.14,2.39,24.26,6.58C106.46,30.91,116,46.34,116,64z" fill="none" stroke="#D1D3D4" stroke-linecap="round" stroke-linejoin="round" stroke-miterlimit="10" stroke-width="4"/><path d="M70.58,52.8C74.42,55.05,77,59.22,77,64c0,5.38-3.27,10-7.94,11.98C67.5,76.64,65.8,77,64,77   c-2.24,0-4.35-0.57-6.2-1.57C53.75,73.23,51,68.94,51,64c0-4.8,2.6-8.99,6.47-11.24C59.39,51.64,61.62,51,64,51   C66.4,51,68.65,51.65,70.58,52.8z" fill="#FFFFFF"/><path d="M70.48,76l17.649,29.5C81.04,109.64,72.8,112,64,112c-8.73,0-16.92-2.33-23.97-6.4L57.52,76l0.28-0.57   c1.85,1,3.96,1.57,6.2,1.57c1.8,0,3.5-0.36,5.06-1.02L70.48,76z" fill="#FFFFFF"/><path d="M39.75,22.57l17.72,30.19C53.6,55.01,51,59.2,51,64H16C16,46.34,25.54,30.9,39.75,22.57z" fill="#FFFFFF"/><path d="M112,64H77c0-4.78-2.58-8.95-6.42-11.2l0.06-0.1l17.62-30.12C102.46,30.91,112,46.34,112,64z" fill="#FFFFFF"/><path d="M77,64h35c0,17.72-9.6,33.19-23.87,41.5L70.48,76l-1.421-0.02C73.73,74,77,69.38,77,64z" fill="#00AEEF"/><path d="M88.26,22.58L70.64,52.7l-0.06,0.1C68.65,51.65,66.4,51,64,51c-2.38,0-4.61,0.64-6.53,1.76L39.75,22.57   C46.86,18.39,55.15,16,64,16C72.85,16,81.14,18.39,88.26,22.58z" fill="#FFF200"/><path d="M57.8,75.43L57.52,76l-17.49,29.6C25.67,97.31,16,81.78,16,64h35C51,68.94,53.75,73.23,57.8,75.43z" fill="#ED1C24"/><path d="M21,64h-5c0,17.78,9.67,33.31,24.03,41.6l1.382-2.339C29.078,94.577,21,80.236,21,64z" fill="#BE1E2D"/><g><path d="M44.75,22.57c6.435-3.783,13.841-6.08,21.749-6.486C65.67,16.042,64.84,16,64,16    c-8.85,0-17.14,2.39-24.25,6.57l17.72,30.19c1.25-0.729,2.634-1.25,4.103-1.528L44.75,22.57z" fill="#D7DF23"/><path d="M69,51c-0.856,0-1.692,0.086-2.502,0.244c1.463,0.286,2.84,0.815,4.082,1.556l0.06-0.1l0.853-1.457    C70.685,51.086,69.853,51,69,51z" fill="#D7DF23"/></g><path d="M41.14,24.938l-1.39-2.369C25.54,30.9,16,46.34,16,64h5C21,47.887,28.956,33.641,41.14,24.938z" fill="#D1D3D4"/><path d="M61.8,75.43C57.75,73.23,55,68.94,55,64c0-4.8,2.6-8.99,6.47-11.24c1.229-0.717,2.586-1.234,4.028-1.516   C64.689,51.086,63.854,51,63,51c-2.38,0-4.61,0.64-6.53,1.76C52.6,55.01,50,59.2,50,64c0,4.94,2.75,9.23,6.8,11.43   c1.85,1,3.96,1.57,6.2,1.57c0.881,0,1.737-0.089,2.565-0.254C64.232,76.492,62.961,76.058,61.8,75.43z" fill="#D1D3D4"/><path d="M75.48,76l-1.421-0.02C78.73,74,82,69.38,82,64h-5c0,5.38-3.27,10-7.94,11.98L70.48,76l17.649,29.5   c1.24-0.722,2.431-1.517,3.598-2.344L75.48,76z" fill="#1C75BC"/><path d="M75.58,52.8l0.06-0.1l16.232-27.748c-1.171-0.837-2.366-1.641-3.612-2.372L70.64,52.7l-0.06,0.1   C74.42,55.05,77,59.22,77,64h5C82,59.22,79.42,55.05,75.58,52.8z" fill="#D1D3D4"/><g><path d="M69,77c0.677,0,1.334-0.066,1.979-0.165L70.48,76l-1.421-0.02c-0.796,0.337-1.63,0.593-2.494,0.766    C67.357,76.896,68.166,77,69,77z" fill="#D1D3D4"/><path d="M45.03,105.6l16.998-28.766c-1.505-0.23-2.933-0.704-4.228-1.404L57.52,76l-17.49,29.6    c7.05,4.07,15.24,6.4,23.97,6.4c0.838,0,1.666-0.041,2.493-0.083C58.705,111.515,51.4,109.277,45.03,105.6z" fill="#D1D3D4"/></g><path d="   M112,64c0,17.72-9.6,33.19-23.87,41.5C81.04,109.64,72.8,112,64,112c-8.73,0-16.92-2.33-23.97-6.4C25.67,97.31,16,81.78,16,64   c0-17.66,9.54-33.1,23.75-41.43C46.86,18.39,55.15,16,64,16c8.85,0,17.14,2.39,24.26,6.58C102.46,30.91,112,46.34,112,64z" fill="none" stroke="#231F20" stroke-linecap="round" stroke-linejoin="round" stroke-miterlimit="10" stroke-width="4"/><path d="M77,64c0,5.38-3.27,10-7.94,11.98   C67.5,76.64,65.8,77,64,77c-2.24,0-4.35-0.57-6.2-1.57C53.75,73.23,51,68.94,51,64c0-4.8,2.6-8.99,6.47-11.24   C59.39,51.64,61.62,51,64,51c2.4,0,4.65,0.65,6.58,1.8C74.42,55.05,77,59.22,77,64z" fill="none" stroke="#231F20" stroke-miterlimit="10" stroke-width="2"/><polyline fill="none" points="   70.64,52.7 88.26,22.58 92.3,15.67  " stroke="#231F20" stroke-linecap="round" stroke-linejoin="round" stroke-miterlimit="10" stroke-width="2"/><polyline fill="none" points="   77,64 112,64 120,64  " stroke="#231F20" stroke-linecap="round" stroke-linejoin="round" stroke-miterlimit="10" stroke-width="2"/><polyline fill="none" points="   70.48,76 88.13,105.5 92.3,112.48  " stroke="#231F20" stroke-linecap="round" stroke-linejoin="round" stroke-miterlimit="10" stroke-width="2"/><polyline fill="none" points="   57.52,76 40.03,105.6 35.96,112.48  " stroke="#231F20" stroke-linecap="round" stroke-linejoin="round" stroke-miterlimit="10" stroke-width="2"/><polyline fill="none" points="   51,64 16,64 8,64  " stroke="#231F20" stroke-linecap="round" stroke-linejoin="round" stroke-miterlimit="10" stroke-width="2"/><polyline fill="none" points="   57.47,52.76 39.75,22.57 35.7,15.67  " stroke="#231F20" stroke-linecap="round" stroke-linejoin="round" stroke-miterlimit="10" stroke-width="2"/></g><g id="Layer_2"/></svg>