<?xml version="1.0" ?><!DOCTYPE svg  PUBLIC '-//W3C//DTD SVG 1.1//EN'  'http://www.w3.org/Graphics/SVG/1.1/DTD/svg11.dtd'><svg enable-background="new 0 0 128 128" height="128px" version="1.1" viewBox="0 0 128 128" width="128px" xml:space="preserve" xmlns="http://www.w3.org/2000/svg" xmlns:xlink="http://www.w3.org/1999/xlink"><g id="Layer_1"><circle cx="68" cy="64" fill="none" r="48" stroke="#D1D3D4" stroke-linecap="round" stroke-linejoin="round" stroke-miterlimit="10" stroke-width="4"/><path d="M64,16c26.51,0,48,21.49,48,48s-21.49,48-48,48S16,90.51,16,64S37.49,16,64,16z M79,54c0-2.76-2.24-5-5-5   s-5,2.24-5,5s2.24,5,5,5S79,56.76,79,54z M69,74c0-2.76-2.24-5-5-5s-5,2.24-5,5s2.24,5,5,5S69,76.76,69,74z M59,54   c0-2.76-2.24-5-5-5s-5,2.24-5,5s2.24,5,5,5S59,56.76,59,54z" fill="#ED1C24"/><circle cx="67" cy="74" fill="#BE1E2D" r="6"/><circle cx="64" cy="74" fill="#231F20" r="5"/><circle cx="54" cy="54" fill="#231F20" r="5"/><circle cx="77" cy="54" fill="#BE1E2D" r="6"/><circle cx="74" cy="54" fill="#231F20" r="5"/><path d="M21,64c0-25.671,20.152-46.635,45.5-47.936C65.672,16.022,64.839,16,64,16c-26.51,0-48,21.49-48,48   s21.49,48,48,48c0.839,0,1.672-0.022,2.5-0.064C41.152,110.635,21,89.671,21,64z" fill="#BE1E2D"/><circle cx="64" cy="64" fill="none" r="48" stroke="#231F20" stroke-linecap="round" stroke-linejoin="round" stroke-miterlimit="10" stroke-width="4"/><circle cx="74" cy="54" fill="none" r="5" stroke="#231F20" stroke-linecap="round" stroke-linejoin="round" stroke-miterlimit="10" stroke-width="2"/><circle cx="57" cy="54" fill="#BE1E2D" r="6"/><circle cx="54" cy="54" fill="none" r="5" stroke="#231F20" stroke-linecap="round" stroke-linejoin="round" stroke-miterlimit="10" stroke-width="2"/><circle cx="64" cy="74" fill="none" r="5" stroke="#231F20" stroke-linecap="round" stroke-linejoin="round" stroke-miterlimit="10" stroke-width="2"/><circle cx="54" cy="54" fill="#231F20" r="5"/></g><g id="Layer_2"/></svg>