<?xml version="1.0" ?><!DOCTYPE svg  PUBLIC '-//W3C//DTD SVG 1.1//EN'  'http://www.w3.org/Graphics/SVG/1.1/DTD/svg11.dtd'><svg enable-background="new 0 0 128 128" height="128px" version="1.1" viewBox="0 0 128 128" width="128px" xml:space="preserve" xmlns="http://www.w3.org/2000/svg" xmlns:xlink="http://www.w3.org/1999/xlink"><g id="Layer_1"><path d="   M104.37,32.69C111.62,41.09,116,52.03,116,64s-4.38,22.91-11.63,31.31C95.58,105.53,82.54,112,68,112s-27.58-6.47-36.37-16.69   C24.38,86.91,20,75.97,20,64s4.38-22.91,11.63-31.31C40.42,22.47,53.46,16,68,16S95.58,22.47,104.37,32.69z" fill="none" stroke="#D1D3D4" stroke-linecap="round" stroke-linejoin="round" stroke-miterlimit="10" stroke-width="4"/><path d="M27.63,32.69C42.12,35.74,53,48.6,53,64S42.12,92.26,27.63,95.31C20.38,86.91,16,75.97,16,64   S20.38,41.09,27.63,32.69z" fill="#D7DF23"/><path d="M64,16c14.54,0,27.58,6.47,36.37,16.69C85.88,35.74,75,48.6,75,64s10.88,28.26,25.37,31.31   C91.58,105.53,78.54,112,64,112s-27.58-6.47-36.37-16.69C42.12,92.26,53,79.4,53,64S42.12,35.74,27.63,32.69   C36.42,22.47,49.46,16,64,16z" fill="#D7DF23"/><path d="M21,64c0-11.438,4.006-21.929,10.687-30.168c-1.315-0.466-2.669-0.85-4.057-1.142   C20.38,41.09,16,52.03,16,64s4.38,22.91,11.63,31.31c1.388-0.292,2.742-0.676,4.057-1.142C25.006,85.929,21,75.438,21,64z" fill="#C9C923"/><path d="M32.63,95.31C47.12,92.26,58,79.4,58,64S47.12,35.74,32.63,32.69c8.283-9.63,20.341-15.925,33.87-16.621   C65.672,16.027,64.839,16,64,16c-14.54,0-27.58,6.47-36.37,16.69C42.12,35.74,53,48.6,53,64S42.12,92.26,27.63,95.31   C36.42,105.53,49.46,112,64,112c0.839,0,1.672-0.027,2.5-0.069C52.971,111.235,40.913,104.94,32.63,95.31z" fill="#C9C923"/><path d="M100.37,32.69C107.62,41.09,112,52.03,112,64s-4.38,22.91-11.63,31.31C85.88,92.26,75,79.4,75,64   S85.88,35.74,100.37,32.69z" fill="#D7DF23"/><path d="M80,64c0-13.925,8.896-25.771,21.313-30.168c-0.312-0.383-0.621-0.768-0.943-1.142   C85.88,35.74,75,48.6,75,64s10.88,28.26,25.37,31.31c0.322-0.374,0.632-0.758,0.943-1.142C88.896,89.771,80,77.925,80,64z" fill="#C9C923"/><path d="   M100.37,32.69C107.62,41.09,112,52.03,112,64s-4.38,22.91-11.63,31.31C91.58,105.53,78.54,112,64,112s-27.58-6.47-36.37-16.69   C20.38,86.91,16,75.97,16,64s4.38-22.91,11.63-31.31C36.42,22.47,49.46,16,64,16S91.58,22.47,100.37,32.69z" fill="none" stroke="#231F20" stroke-linecap="round" stroke-linejoin="round" stroke-miterlimit="10" stroke-width="4"/><path d="   M17.94,32.14C18.95,32.05,19.97,32,21,32c2.27,0,4.49,0.24,6.63,0.69C42.12,35.74,53,48.6,53,64S42.12,92.26,27.63,95.31   C25.49,95.76,23.27,96,21,96c-1.03,0-2.06-0.05-3.06-0.14" fill="none" stroke="#231F20" stroke-linecap="round" stroke-linejoin="round" stroke-miterlimit="10" stroke-width="2"/><path d="   M110.06,95.86C109.05,95.95,108.03,96,107,96c-2.27,0-4.49-0.24-6.63-0.69C85.88,92.26,75,79.4,75,64s10.88-28.26,25.37-31.31   c2.14-0.45,4.36-0.69,6.63-0.69c1.03,0,2.05,0.05,3.06,0.14" fill="none" stroke="#231F20" stroke-linecap="round" stroke-linejoin="round" stroke-miterlimit="10" stroke-width="2"/></g><g id="Layer_2"/></svg>