<?xml version="1.0" ?><!DOCTYPE svg  PUBLIC '-//W3C//DTD SVG 1.1//EN'  'http://www.w3.org/Graphics/SVG/1.1/DTD/svg11.dtd'><svg enable-background="new 0 0 128 128" height="128px" version="1.1" viewBox="0 0 128 128" width="128px" xml:space="preserve" xmlns="http://www.w3.org/2000/svg" xmlns:xlink="http://www.w3.org/1999/xlink"><g id="Layer_1"><path d="   M97.86,26.42C108.91,35.21,116,48.78,116,64c0,15.21-7.07,28.77-18.11,37.56c-5.72,4.56-12.51,7.84-19.939,9.41   C74.74,111.64,71.41,112,68,112s-6.74-0.36-9.95-1.03c-7.43-1.57-14.22-4.85-19.939-9.41C27.07,92.77,20,79.21,20,64   c0-15.22,7.09-28.79,18.14-37.58c5.73-4.56,12.521-7.84,19.94-9.4C61.28,16.35,64.6,16,68,16s6.72,0.35,9.92,1.02   C85.34,18.58,92.13,21.86,97.86,26.42z" fill="none" stroke="#D1D3D4" stroke-linecap="round" stroke-linejoin="round" stroke-miterlimit="10" stroke-width="4"/><path d="M103.39,71.03c0.4-2.28,0.61-4.63,0.61-7.03s-0.21-4.75-0.62-7.03c-1.46-8.32-5.5-15.74-11.26-21.44   c0.29-1.15,1.05-4.37,1.74-9.11C104.91,35.21,112,48.78,112,64c0,15.21-7.07,28.77-18.11,37.56c-0.689-4.76-1.449-8.01-1.75-9.23   l0.141-0.02C97.95,86.63,101.92,79.27,103.39,71.03z" fill="#1C75BC"/><path d="M92.14,92.33c0.301,1.22,1.061,4.47,1.75,9.23c-5.72,4.56-12.51,7.84-19.939,9.41   C72.64,101.32,71,95.6,71,95.6l-0.04-0.61C77.51,94.65,84.63,93.76,92,92l0.05-0.01C92.07,92.08,92.1,92.19,92.14,92.33z" fill="#1C75BC"/><path d="M92.05,91.99L92,92c-7.37,1.76-14.49,2.65-21.04,2.99c-5.03,0.28-9.72,0.23-13.93,0C44.32,94.3,36,92,36,92   l-0.05-0.01c-0.03,0.11-0.07,0.25-0.11,0.44c-5.729-5.69-9.75-13.1-11.22-21.4L24.8,71c0,0,35.391,10.17,78.4,0l0.189,0.03   c-1.47,8.24-5.439,15.6-11.109,21.28l-0.141,0.02C92.1,92.19,92.07,92.08,92.05,91.99z" fill="#1C75BC"/><path d="M36,92c0,0,8.32,2.3,21.03,2.99L57,95.6c0,0-1.65,5.72-2.95,15.37c-7.43-1.57-14.22-4.85-19.939-9.41   c0.67-4.64,1.409-7.85,1.729-9.13c0.04-0.19,0.08-0.33,0.11-0.44L36,92z" fill="#1C75BC"/><path d="M34.14,26.42c0.69,4.74,1.45,7.96,1.74,9.11c-5.76,5.7-9.8,13.12-11.26,21.44C24.21,59.25,24,61.6,24,64   s0.21,4.75,0.62,7.03c1.47,8.3,5.49,15.71,11.22,21.4c-0.32,1.28-1.06,4.49-1.729,9.13C23.07,92.77,16,79.21,16,64   C16,48.78,23.09,35.21,34.14,26.42z" fill="#1C75BC"/><path d="M57.04,33.01C44.33,33.7,36,36,36,36s-0.04-0.16-0.12-0.47c-0.29-1.15-1.05-4.37-1.74-9.11   c5.73-4.56,12.521-7.84,19.94-9.4C55.38,26.55,57,32.2,57,32.2L57.04,33.01z" fill="#1C75BC"/><path d="M92,36c0,0,0.04-0.16,0.12-0.47c5.76,5.7,9.8,13.12,11.26,21.44L103.2,57c-43.01-10.17-78.4,0-78.4,0   l-0.18-0.03c1.46-8.32,5.5-15.74,11.26-21.44C35.96,35.84,36,36,36,36s8.33-2.3,21.04-2.99c4.2-0.23,8.89-0.28,13.91-0.01   C77.5,33.35,84.62,34.24,92,36z" fill="#1C75BC"/><path d="M93.86,26.42c-0.69,4.74-1.45,7.96-1.74,9.11C92.04,35.84,92,36,92,36c-7.38-1.76-14.5-2.65-21.05-3   L71,32.2c0,0,1.62-5.65,2.92-15.18C81.34,18.58,88.13,21.86,93.86,26.42z" fill="#1C75BC"/><path d="M21,64c0-13.108,5.268-24.983,13.785-33.644c-0.212-1.162-0.432-2.466-0.646-3.937   C23.09,35.21,16,48.78,16,64c0,15.21,7.07,28.77,18.11,37.56c0.212-1.47,0.431-2.778,0.642-3.945C26.249,88.957,21,77.094,21,64z" fill="#056093"/><path d="M71,95.6c0,0,1.64,5.72,2.95,15.37C70.74,111.64,67.41,112,64,112s-6.74-0.36-9.95-1.03   C55.35,101.32,57,95.6,57,95.6l0.03-0.61c4.21,0.23,8.899,0.28,13.93,0L71,95.6z" fill="#F9ED32"/><path d="M39.14,26.42c4.464-3.552,9.577-6.314,15.124-8.105c-0.062-0.426-0.123-0.852-0.184-1.295   c-7.42,1.56-14.21,4.84-19.94,9.4c0.69,4.74,1.45,7.96,1.74,9.11C35.96,35.84,36,36,36,36s1.709-0.469,4.738-1.047   C40.387,33.486,39.738,30.527,39.14,26.42z" fill="#056093"/><path d="M104,64c0,2.4-0.21,4.75-0.61,7.03L103.2,71c-43.01,10.17-78.4,0-78.4,0l-0.18,0.03   C24.21,68.75,24,66.4,24,64s0.21-4.75,0.62-7.03L24.8,57c0,0,35.391-10.17,78.4,0l0.18-0.03C103.79,59.25,104,61.6,104,64z" fill="#F9ED32"/><path d="M39.11,101.56c0.582-4.03,1.215-6.977,1.582-8.521C37.69,92.465,36,92,36,92l-0.05-0.01   c-0.03,0.11-0.07,0.25-0.11,0.44c-0.32,1.28-1.06,4.49-1.729,9.13c5.72,4.56,12.51,7.84,19.939,9.41   c0.06-0.445,0.121-0.872,0.183-1.299C48.68,107.875,43.567,105.113,39.11,101.56z" fill="#056093"/><path d="M75.95,33L76,32.2c0,0,1.473-5.146,2.736-13.885c-1.574-0.508-3.177-0.95-4.816-1.295   C72.62,26.55,71,32.2,71,32.2L70.95,33c6.55,0.35,13.67,1.24,21.05,3c0,0,0.04-0.16,0.12-0.47c0.037-0.147,0.083-0.331,0.134-0.545   C86.57,33.888,81.083,33.274,75.95,33z" fill="#056093"/><path d="M73.92,17.02C72.62,26.55,71,32.2,71,32.2L70.95,33c-5.021-0.27-9.71-0.22-13.91,0.01L57,32.2   c0,0-1.62-5.65-2.92-15.18C57.28,16.35,60.6,16,64,16S70.72,16.35,73.92,17.02z" fill="#F9ED32"/><g><path d="M62.03,94.99C49.32,94.3,41,92,41,92l-0.05-0.01c-0.03,0.11-0.07,0.25-0.11,0.44    c-5.46-5.422-9.362-12.408-10.99-20.236C26.597,71.514,24.8,71,24.8,71l-0.18,0.03c1.47,8.3,5.49,15.71,11.22,21.4    c0.04-0.19,0.08-0.33,0.11-0.44L36,92c0,0,8.32,2.3,21.03,2.99c2.967,0.162,6.184,0.227,9.578,0.158    C65.035,95.118,63.494,95.07,62.03,94.99z" fill="#056093"/><path d="M103.178,72.095c0.073-0.354,0.148-0.708,0.212-1.065L103.2,71c-13.273,3.139-25.815,4.336-36.821,4.497    C77.18,75.642,89.737,74.83,103.178,72.095z" fill="#056093"/></g><path d="M76,95.6l-0.04-0.61c5.146-0.268,10.647-0.882,16.342-1.983c-0.062-0.264-0.118-0.498-0.162-0.677   c-0.04-0.14-0.069-0.25-0.09-0.34L92,92c-7.37,1.76-14.49,2.65-21.04,2.99L71,95.6c0,0,1.64,5.72,2.95,15.37   c1.641-0.347,3.243-0.791,4.816-1.299C77.491,100.814,76,95.6,76,95.6z" fill="#056093"/><g><path d="M40.88,35.53C40.96,35.84,41,36,41,36s8.33-2.3,21.04-2.99c1.493-0.082,3.068-0.13,4.679-0.16    c-3.434-0.07-6.685-0.004-9.679,0.16C44.33,33.7,36,36,36,36s-0.04-0.16-0.12-0.47c-5.76,5.7-9.8,13.12-11.26,21.44L24.8,57    c0,0,1.796-0.514,5.049-1.193C31.469,47.959,35.391,40.962,40.88,35.53z" fill="#056093"/><path d="M66.379,52.503C77.385,52.664,89.927,53.861,103.2,57l0.18-0.03c-0.063-0.358-0.137-0.712-0.209-1.066    C89.732,53.17,77.178,52.358,66.379,52.503z" fill="#056093"/></g><path d="M29.8,71l-0.18,0.03C29.21,68.75,29,66.4,29,64s0.21-4.75,0.62-7.03L29.8,57c0,0,14.668-4.205,36.579-4.497   C41.723,52.142,24.8,57,24.8,57l-0.18-0.03C24.21,59.25,24,61.6,24,64s0.21,4.75,0.62,7.03L24.8,71c0,0,16.923,4.858,41.579,4.497   C44.468,75.205,29.8,71,29.8,71z" fill="#D7DF23"/><g><path d="M70.971,95.155L70.96,94.99c-1.485,0.083-2.93,0.129-4.352,0.158    C68.022,95.175,69.477,95.178,70.971,95.155z" fill="#D7DF23"/><path d="M59.05,110.97C60.35,101.32,62,95.6,62,95.6l0.022-0.445c-1.721-0.027-3.401-0.078-4.992-0.165L57,95.6    c0,0-1.65,5.72-2.95,15.37c3.21,0.67,6.54,1.03,9.95,1.03c0.839,0,1.672-0.023,2.5-0.065    C63.96,111.803,61.471,111.476,59.05,110.97z" fill="#D7DF23"/></g><g><path d="M62,32.2c0,0-1.62-5.65-2.92-15.18c2.411-0.505,4.89-0.827,7.42-0.956C65.672,16.022,64.839,16,64,16    c-3.4,0-6.72,0.35-9.92,1.02C55.38,26.55,57,32.2,57,32.2l0.04,0.81c1.59-0.087,3.271-0.137,4.992-0.165L62,32.2z" fill="#D7DF23"/><path d="M66.719,32.85c1.384,0.028,2.789,0.073,4.231,0.15l0.01-0.158C69.509,32.821,68.095,32.824,66.719,32.85z" fill="#D7DF23"/></g><path d="M97.14,92.33l0.141-0.02c5.67-5.68,9.64-13.04,11.109-21.28c0.4-2.28,0.61-4.63,0.61-7.03   s-0.21-4.75-0.62-7.03c-1.46-8.32-5.5-15.74-11.26-21.44c0.2-0.793,0.625-2.591,1.095-5.173c-1.372-1.396-2.821-2.717-4.354-3.937   c-0.69,4.74-1.45,7.96-1.74,9.11c5.76,5.7,9.8,13.12,11.26,21.44C103.79,59.25,104,61.6,104,64s-0.21,4.75-0.61,7.03   c-1.47,8.24-5.439,15.6-11.109,21.28l-0.141,0.02c0.301,1.22,1.061,4.47,1.75,9.23c1.535-1.222,2.984-2.545,4.357-3.944   C97.775,95.005,97.348,93.173,97.14,92.33z" fill="#056093"/><path d="   M93.86,26.42C104.91,35.21,112,48.78,112,64c0,15.21-7.07,28.77-18.11,37.56c-5.72,4.56-12.51,7.84-19.939,9.41   C70.74,111.64,67.41,112,64,112s-6.74-0.36-9.95-1.03c-7.43-1.57-14.22-4.85-19.939-9.41C23.07,92.77,16,79.21,16,64   c0-15.22,7.09-28.79,18.14-37.58c5.73-4.56,12.521-7.84,19.94-9.4C57.28,16.35,60.6,16,64,16s6.72,0.35,9.92,1.02   C81.34,18.58,88.13,21.86,93.86,26.42z" fill="none" stroke="#231F20" stroke-linecap="round" stroke-linejoin="round" stroke-miterlimit="10" stroke-width="4"/><path d="   M35.84,92.43c-5.729-5.69-9.75-13.1-11.22-21.4C24.21,68.75,24,66.4,24,64s0.21-4.75,0.62-7.03c1.46-8.32,5.5-15.74,11.26-21.44" fill="none" stroke="#231F20" stroke-linecap="round" stroke-linejoin="round" stroke-miterlimit="10" stroke-width="2"/><path d="   M92.12,35.53c5.76,5.7,9.8,13.12,11.26,21.44C103.79,59.25,104,61.6,104,64s-0.21,4.75-0.61,7.03   c-1.47,8.24-5.439,15.6-11.109,21.28" fill="none" stroke="#231F20" stroke-linecap="round" stroke-linejoin="round" stroke-miterlimit="10" stroke-width="2"/><path d="   M24.8,57c0,0,35.391-10.17,78.4,0" fill="none" stroke="#231F20" stroke-linecap="round" stroke-linejoin="round" stroke-miterlimit="10" stroke-width="2"/><path d="   M24.8,71c0,0,35.391,10.17,78.4,0" fill="none" stroke="#231F20" stroke-linecap="round" stroke-linejoin="round" stroke-miterlimit="10" stroke-width="2"/><path d="   M36,36c0,0,8.33-2.3,21.04-2.99c4.2-0.23,8.89-0.28,13.91-0.01c6.55,0.35,13.67,1.24,21.05,3" fill="none" stroke="#231F20" stroke-linecap="round" stroke-linejoin="round" stroke-miterlimit="10" stroke-width="2"/><path d="   M36,92c0,0,8.32,2.3,21.03,2.99c4.21,0.23,8.899,0.28,13.93,0C77.51,94.65,84.63,93.76,92,92" fill="none" stroke="#231F20" stroke-linecap="round" stroke-linejoin="round" stroke-miterlimit="10" stroke-width="2"/><path d="   M57,32.2c0,0-1.62-5.65-2.92-15.18c-0.33-2.42-0.64-5.09-0.9-7.98" fill="none" stroke="#231F20" stroke-linecap="round" stroke-linejoin="round" stroke-miterlimit="10" stroke-width="2"/><path d="   M71,32.2c0,0,1.62-5.65,2.92-15.18c0.33-2.42,0.64-5.09,0.9-7.98" fill="none" stroke="#231F20" stroke-linecap="round" stroke-linejoin="round" stroke-miterlimit="10" stroke-width="2"/><path d="   M36,36c0,0-0.04-0.16-0.12-0.47c-0.29-1.15-1.05-4.37-1.74-9.11c-0.38-2.62-0.739-5.7-0.989-9.17" fill="none" stroke="#231F20" stroke-linecap="round" stroke-linejoin="round" stroke-miterlimit="10" stroke-width="2"/><path d="   M92,36c0,0,0.04-0.16,0.12-0.47c0.29-1.15,1.05-4.37,1.74-9.11c0.38-2.62,0.739-5.7,0.989-9.17" fill="none" stroke="#231F20" stroke-linecap="round" stroke-linejoin="round" stroke-miterlimit="10" stroke-width="2"/><path d="   M71,95.6c0,0,1.64,5.72,2.95,15.37c0.319,2.42,0.63,5.09,0.89,7.98" fill="none" stroke="#231F20" stroke-linecap="round" stroke-linejoin="round" stroke-miterlimit="10" stroke-width="2"/><path d="   M57,95.6c0,0-1.65,5.72-2.95,15.37c-0.33,2.42-0.64,5.09-0.89,7.98" fill="none" stroke="#231F20" stroke-linecap="round" stroke-linejoin="round" stroke-miterlimit="10" stroke-width="2"/><path d="   M92,91.8c0,0,0.02,0.07,0.05,0.19c0.021,0.09,0.05,0.2,0.09,0.34c0.301,1.22,1.061,4.47,1.75,9.23c0.37,2.63,0.73,5.72,0.971,9.18" fill="none" stroke="#231F20" stroke-linecap="round" stroke-linejoin="round" stroke-miterlimit="10" stroke-width="2"/><path d="   M36,91.8c0,0-0.02,0.07-0.05,0.19c-0.03,0.11-0.07,0.25-0.11,0.44c-0.32,1.28-1.06,4.49-1.729,9.13   c-0.37,2.63-0.73,5.72-0.971,9.18" fill="none" stroke="#231F20" stroke-linecap="round" stroke-linejoin="round" stroke-miterlimit="10" stroke-width="2"/></g><g id="Layer_2"/></svg>